<?xml version="1.0" encoding="utf-8"?>
<!-- Generator: Adobe Illustrator 13.0.0, SVG Export Plug-In . SVG Version: 6.00 Build 14948)  -->
<!DOCTYPE svg PUBLIC "-//W3C//DTD SVG 1.1//EN" "http://www.w3.org/Graphics/SVG/1.1/DTD/svg11.dtd">
<svg version="1.1" id="Layer_2" xmlns="http://www.w3.org/2000/svg" xmlns:xlink="http://www.w3.org/1999/xlink" x="0px" y="0px"
	 width="596.532px" height="101.159px" viewBox="-1.257 368.874 596.532 101.159"
	 enable-background="new -1.257 368.874 596.532 101.159" xml:space="preserve">
<rect x="-0.862" y="-0.555" display="none" width="595.275" height="841.89"/>
<g id="Layer_1">
	<g>
		<g>
			<path fill="#FFFFFF" d="M595.275,420.945c0,27.817-22.552,50.369-50.369,50.369H50.37C22.552,471.314,0,448.762,0,420.945l0,0
				c0-27.817,22.552-50.369,50.37-50.369h494.537C572.724,370.576,595.275,393.128,595.275,420.945L595.275,420.945z"/>
		</g>
		<g>
			<g>
				<g>
					<g>
						<path fill="#84BD00" d="M154.744,393.139c-16.393,0-29.561,13.168-29.561,29.562s13.168,29.563,29.561,29.563
							c16.394,0,29.563-13.169,29.563-29.563C184.306,406.441,171.138,393.139,154.744,393.139z M168.316,435.869
							c-0.538,0.808-1.613,1.209-2.553,0.673c-6.987-4.301-15.721-5.241-25.934-2.822c-0.94,0.269-2.016-0.403-2.149-1.344
							c-0.269-0.94,0.403-2.016,1.343-2.15c11.288-2.553,20.962-1.478,28.756,3.36C168.585,433.853,168.853,434.928,168.316,435.869
							z M171.944,427.807c-0.673,1.075-2.15,1.478-3.226,0.806c-7.928-4.837-20.021-6.314-29.427-3.493
							c-1.209,0.402-2.553-0.269-2.822-1.479c-0.403-1.21,0.269-2.553,1.479-2.822c10.75-3.225,24.052-1.747,33.189,3.897
							C172.347,425.255,172.616,426.732,171.944,427.807z M172.347,419.342c-9.541-5.645-25.262-6.182-34.398-3.36
							c-1.479,0.403-2.957-0.404-3.494-1.881c-0.402-1.477,0.403-2.956,1.881-3.494c10.481-3.224,27.815-2.553,38.833,3.897
							c1.344,0.806,1.747,2.419,0.941,3.763C175.303,419.744,173.556,420.148,172.347,419.342z"/>
					</g>
				</g>
			</g>
			<g>
				<path d="M213.867,421.894c0-8.331,6.182-13.84,14.109-13.84c5.375,0,8.734,2.822,10.75,6.047l-4.032,2.151
					c-1.343-2.285-3.896-3.897-6.718-3.897c-5.375,0-9.271,4.031-9.271,9.675s3.896,9.674,9.271,9.674
					c2.822,0,5.509-1.745,6.718-3.896l4.032,2.015c-2.016,3.227-5.375,6.047-10.75,6.047
					C220.049,435.734,213.867,430.092,213.867,421.894z"/>
				<path d="M242.488,435.332v-19.484h4.166v2.822c1.478-1.882,3.763-3.359,6.316-3.359v4.166c-0.403-0.134-0.806-0.134-1.344-0.134
					c-1.747,0-4.166,1.209-5.106,2.687v13.303H242.488z"/>
				<path d="M255.254,425.522c0-5.643,4.166-10.212,9.809-10.212c5.912,0,9.541,4.434,9.541,10.616v1.074h-14.915
					c0.269,2.957,2.553,5.375,6.181,5.375c1.881,0,4.166-0.806,5.509-2.15l1.881,2.823c-2.016,1.88-4.837,2.82-7.928,2.82
					C259.554,435.734,255.254,431.703,255.254,425.522z M265.063,418.804c-3.628,0-5.241,2.822-5.375,5.105h11.018
					C270.573,421.627,268.959,418.804,265.063,418.804z"/>
				<path d="M290.862,435.332v-2.15c-1.479,1.747-3.763,2.688-6.315,2.688c-3.09,0-6.719-2.149-6.719-6.449
					c0-4.568,3.494-6.315,6.719-6.315c2.688,0,4.837,0.806,6.315,2.553v-2.956c0-2.284-1.881-3.628-4.569-3.628
					c-2.15,0-4.166,0.807-5.778,2.554l-1.747-2.957c2.284-2.15,5.106-3.091,8.196-3.091c4.3,0,8.197,1.882,8.197,6.988v12.9h-4.3
					V435.332z M290.862,430.897v-2.956c-1.074-1.344-2.822-2.015-4.702-2.015c-2.419,0-4.166,1.343-4.166,3.493
					s1.747,3.494,4.166,3.494C288.041,432.914,289.788,432.241,290.862,430.897z"/>
				<path d="M301.478,430.763v-11.288h-3.225v-3.628h3.225v-5.375h4.3v5.375h3.896v3.628h-3.896v10.212
					c0,1.344,0.672,2.284,1.881,2.284c0.807,0,1.479-0.402,1.882-0.672l1.075,3.225c-0.807,0.672-2.016,1.209-3.896,1.209
					C303.089,435.734,301.478,433.988,301.478,430.763z"/>
				<path d="M312.229,425.522c0-5.643,4.165-10.212,9.809-10.212c5.777,0,9.54,4.434,9.54,10.616v1.074h-15.05
					c0.269,2.957,2.553,5.375,6.181,5.375c1.882,0,4.166-0.806,5.51-2.15l1.881,2.823c-2.016,1.88-4.838,2.82-7.929,2.82
					C316.527,435.734,312.229,431.703,312.229,425.522z M322.037,418.804c-3.628,0-5.241,2.822-5.376,5.105h11.019
					C327.546,421.627,325.933,418.804,322.037,418.804z"/>
				<path d="M346.107,435.137l0.503-26.869l11.822,0.221c5.644,0.106,8.663,3.925,8.576,8.627c-0.087,4.568-3.247,8.272-8.89,8.167
					l-7.121-0.133l-0.188,10.075L346.107,435.137z M362.308,416.893c0.048-2.553-1.8-4.335-4.488-4.385l-6.583-0.123l-0.16,8.599
					l6.449,0.121C360.212,421.156,362.26,419.447,362.308,416.893z"/>
				<path d="M370.813,435.332v-26.874h4.166v26.874H370.813z"/>
				<path d="M392.446,435.332v-2.15c-1.478,1.747-3.762,2.688-6.314,2.688c-3.092,0-6.72-2.149-6.72-6.449
					c0-4.568,3.494-6.315,6.72-6.315c2.687,0,4.837,0.806,6.314,2.553v-2.956c0-2.284-1.88-3.628-4.568-3.628
					c-2.149,0-4.165,0.807-5.777,2.554l-1.747-2.957c2.284-2.15,5.105-3.091,8.197-3.091c4.299,0,8.196,1.882,8.196,6.988v12.9
					h-4.301V435.332z M392.446,430.897v-2.956c-1.075-1.344-2.822-2.015-4.703-2.015c-2.418,0-4.165,1.343-4.165,3.493
					s1.747,3.494,4.165,3.494C389.624,432.914,391.507,432.241,392.446,430.897z"/>
				<path d="M401.987,439.094c0.403,0.268,1.074,0.268,1.612,0.268c1.344,0,2.284-0.402,2.821-1.746l0.941-2.284l-8.062-19.753
					h4.567l5.645,14.647l5.643-14.647h4.568l-9.405,22.978c-1.344,3.36-3.629,4.301-6.719,4.434c-0.671,0-1.881-0.133-2.418-0.268
					L401.987,439.094z"/>
				<path d="M422.411,435.332v-26.874h4.301v26.874H422.411z"/>
				<path d="M431.683,410.876c0-1.479,1.21-2.688,2.688-2.688c1.478,0,2.553,1.209,2.553,2.688c0,1.478-1.21,2.553-2.553,2.553
					C433.026,413.429,431.683,412.22,431.683,410.876z M432.221,435.332v-19.484h4.3v19.484H432.221z"/>
				<path d="M440.283,432.778l1.882-2.956c1.343,1.345,4.029,2.688,6.584,2.688c2.553,0,3.896-1.075,3.896-2.553
					c0-3.764-11.824-1.075-11.824-8.601c0-3.225,2.688-5.912,7.658-5.912c3.36,0,5.778,1.209,7.526,2.688l-1.748,2.957
					c-1.208-1.344-3.358-2.284-5.778-2.284c-2.148,0-3.628,1.075-3.628,2.419c0,3.359,11.826,0.806,11.826,8.599
					c0,3.494-2.822,6.047-8.063,6.047C445.255,435.734,442.298,434.66,440.283,432.778z"/>
				<path d="M461.782,430.763v-11.288h-3.225v-3.628h3.225v-5.375h4.3v5.375h3.897v3.628h-3.897v10.212
					c0,1.344,0.672,2.284,1.882,2.284c0.806,0,1.478-0.402,1.881-0.672l1.075,3.225c-0.808,0.672-2.017,1.209-3.897,1.209
					C463.528,435.734,461.782,433.988,461.782,430.763z"/>
			</g>
		</g>
	</g>
</g>
</svg>
